<?xml version="1.0" encoding="utf-8"?>
<!-- Generator: Adobe Illustrator 19.2.0, SVG Export Plug-In . SVG Version: 6.00 Build 0)  -->
<svg version="1.1" id="Layer_1" xmlns="http://www.w3.org/2000/svg" xmlns:xlink="http://www.w3.org/1999/xlink" x="0px" y="0px"
	 viewBox="0 0 120.4 73.8" style="enable-background:new 0 0 120.4 73.8;" xml:space="preserve">
<style type="text/css">
	.st0{fill:#FA0100;}
	.st1{fill:#1C3F91;}
	.st2{fill:#FFFFFF;}
</style>
<g>
	<g>
		<g>
			<path class="st0" d="M69,38.3c1.9,0.1,3.8,0.1,5.7,0.3c3.5,0.2,7.1,0.3,10.6,0c2.6-0.3,5.2-0.5,7.7-0.9c4.2-0.7,8.3-1.8,12.1-3.8
				c2.6-1.3,4.9-2.9,6.7-5.1c1.2-1.5,2.3-3.2,2.5-5.2c0.1-0.9-0.1-2-0.5-2.9c-1.1-2.4-3-4.2-5.3-5.5c-3.8-2.1-7.9-3.1-12.1-3.7
				c-4.5-0.7-8.8-0.2-13.2,0.7c-0.2,0-0.4,0.1-0.6,0.2c-0.2,0.1-0.3,0.1-0.5,0.1c0-0.1-0.1-0.2-0.1-0.2c1.1-0.5,2.1-1.1,3.2-1.6
				c3.1-1.3,6.3-2.4,9.7-2.9c3.6-0.6,7.2-1.1,10.8-1.5c1.3-0.2,2.6-0.2,3.8-0.2c0.3,0,0.7,0.1,0.9,0.2c2.5,1.5,4.8,3.4,6.6,5.7
				c2.4,3,3.7,6.4,3.4,10.2c-0.2,2.4-1.1,4.7-2.4,6.7c-3,4.3-7.1,7.1-11.8,9.1c-5.2,2.3-10.7,3.4-16.4,3.7c-6.1,0.4-12-0.2-17.8-2
				c-1.1-0.3-2.1-0.7-3.2-1C68.9,38.4,68.9,38.4,69,38.3z"/>
			<path class="st0" d="M104.1,3.1c-2,0-4.1,0.1-6.1,0C92.1,2.8,86.2,3,80.4,4.2c-2.8,0.5-5.6,1.2-8.2,2.1
				c-4.1,1.4-7.8,3.4-10.5,6.9c-1,1.3-1.8,2.8-2.3,4.4c-0.7,2,0.3,3.8,1.5,5.5c1.6,2.2,3.9,3.5,6.3,4.6c4.3,1.9,8.9,2.9,13.6,3
				c3.4,0.1,6.8-0.2,10.1-1.1c0.2-0.1,0.5-0.1,0.8-0.2c0,0.1,0.1,0.2,0.1,0.2c-1.6,0.7-3.1,1.5-4.7,2.1c-4.9,1.9-10,2.9-15.2,3.5
				c-2.1,0.2-4.2,0.4-6.3,0.6c-1.4,0.2-2.5-0.2-3.6-1c-2.9-2.1-5.5-4.4-7.1-7.5c-1.8-3.4-2.2-7-0.9-10.8c1.3-3.9,4-6.7,7.2-9.1
				c4.7-3.5,10-5.3,15.6-6.4c2.8-0.5,5.7-0.7,8.6-0.9c4.3-0.3,8.5,0.2,12.6,1.1C100,1.7,102.1,2.4,104.1,3.1
				C104.2,3,104.2,3.1,104.1,3.1z"/>
			<path class="st0" d="M84.5,12.7c2.9,0.2,5.9,0.2,8.6,1.5c2.5,1.2,4.3,2.9,5,5.7c0.4,1.4-0.1,2.7-0.7,3.9
				c-0.9,1.9-2.4,3.3-4.1,4.6c-0.8,0.7-1.8,0.5-2.7,0.6c-3.1,0.2-6.1,0.1-9.1-1c-1.7-0.6-3.2-1.4-4.4-2.8c-1-1.1-1.6-2.5-1.8-4
				c-0.1-0.6,0.2-1.3,0.4-2c0.9-2.5,2.5-4.4,4.6-5.9c0.4-0.3,1-0.5,1.6-0.5C82.8,12.7,83.6,12.7,84.5,12.7z"/>
		</g>
	</g>
	<rect y="1.2" class="st1" width="43.1" height="42.1"/>
	<g>
		<path class="st2" d="M35.7,40.3c-0.5-1.6-1-3.3-1.5-4.9c-0.7-2.6-1.5-5.1-2.2-7.7c-0.2-0.8-0.4-1.6-0.5-2.4c0-0.2-0.1-0.3-0.3-0.3
			c-0.7,0-1.3,0-2,0c-0.5,0-0.8,0.1-1,0.6c-0.3,0.7-0.9,1.4-1.3,2c-1.4,1.9-2.7,3.9-4.1,5.8c-0.2-0.6-0.3-1.1-0.5-1.6
			c0-0.1,0-0.4,0.1-0.5c0.6-0.9,1.2-1.7,1.8-2.5c0.9-1.2,1.7-2.5,2.7-3.6c0.1-0.1,0.1-0.1,0.2-0.3c-1.1,0-2.1,0-3.1,0
			c-0.1,0-0.2,0.1-0.3,0.2c-0.4,0.6-0.7,1.1-1.1,1.7c-0.4,0.6-0.9,1.2-1.3,1.8h-0.1c-0.3-1.1-0.6-2.2-0.8-3.4
			c-0.1-0.3-0.2-0.3-0.4-0.3c-1,0-2,0-3,0c-0.1,0-0.2,0-0.4,0c0.2,0.4,0.3,0.7,0.4,1.1c0.6,2,1.2,3.9,1.8,5.9c0,0.1,0,0.2,0,0.3
			c-0.3,0.4-0.6,0.8-0.9,1.3c-0.2-0.8-0.5-1.6-0.7-2.3c-0.6-2.1-1.4-4-1.6-6.2c-1,0-2,0-2.9,0c-0.3,0.6-0.5,1.2-0.9,1.7
			c-1,1.5-2.1,3-3.2,4.5c-0.7,1-1.4,2-2.1,3.1c-1.1,1.6-2.3,3.2-3.4,4.8c-0.5,0.7-1,1.4-1.7,2c-0.2,0.1-0.3,0.4-0.5,0.6
			c0.1,0,0.2,0,0.3,0c0.8,0,1.6,0,2.5,0c0.2,0,0.4-0.1,0.5-0.3c0.2-0.3,0.4-0.6,0.7-1c1.3-1.8,2.5-3.6,3.8-5.4
			c0.1-0.2,0.2-0.2,0.4-0.2c1.8,0,3.7,0,5.5,0c0.2,0,0.3,0.1,0.3,0.3c0.2,0.6,0.4,1.1,0.5,1.7c0,0.1,0,0.3-0.1,0.5
			c-0.2,0.3-0.4,0.5-0.5,0.8c-0.8,1-1.5,2-2.3,3c-0.2,0.2-0.4,0.4-0.6,0.7c0.9,0,1.7,0,2.5,0c0.4,0,0.6-0.1,0.8-0.5
			c0.3-0.5,0.7-1,1.1-1.5c0.2,0.6,0.3,1.1,0.5,1.7c0.1,0.2,0.1,0.3,0.3,0.3c0.8,0,1.6,0,2.4,0c0.1,0,0.3-0.1,0.3-0.2
			c0.4-0.6,0.8-1.1,1.2-1.7c0.2,0.7,0.4,1.3,0.5,1.9c1.2,0,2.4,0,3.6,0c-0.1-0.3-0.3-0.5-0.3-0.8c-0.5-1.4-0.9-2.8-1.4-4.3
			c0-0.1,0-0.3,0.1-0.5c0.2-0.4,0.5-0.7,0.7-1s0.3-0.3,0.6-0.3c1.8,0,3.5,0,5.3,0c0.3,0,0.4,0.1,0.5,0.4c0.3,1.1,0.6,2.1,0.9,3.1
			c0.3,1,0.5,2,0.7,3c0,0.2,0.1,0.3,0.4,0.3c1.1,0,2.1,0,3.2,0c0.1,0,0.2,0,0.3,0C36,41.2,35.8,40.7,35.7,40.3z M10.2,32.6
			c0.9-1.3,1.8-2.6,2.7-3.9c0.4,1.3,0.8,2.6,1.2,3.9C12.8,32.6,11.5,32.6,10.2,32.6z M20.2,37.1c-0.3,0.4-0.6,0.8-0.9,1.3
			c-0.2-0.7-0.4-1.3-0.6-1.9c0-0.1,0-0.3,0-0.4c0.2-0.4,0.5-0.8,0.8-1.2c0.2,0.7,0.4,1.3,0.6,1.9C20.2,36.9,20.2,37,20.2,37.1z
			 M26.1,32.6c0.9-1.3,1.7-2.6,2.6-3.9c0.4,1.3,0.8,2.6,1.2,3.9C28.7,32.6,27.4,32.6,26.1,32.6z"/>
	</g>
	<polygon class="st0" points="40,1.2 24,24.3 26.7,24.3 42.7,1.2 	"/>
	<g>
		<path class="st1" d="M3.3,66.4c0.2,0,0.3,0,0.5,0l-0.1,1.3c-0.1,0-0.3,0-0.4,0c-0.4,0-0.8,0.1-1,0.3c-0.3,0.2-0.4,0.6-0.4,1v2.6
			H0.5v-5.1h1.1l0.2,0.9h0.1c0.2-0.3,0.4-0.5,0.6-0.7C2.7,66.5,3,66.4,3.3,66.4z"/>
		<path class="st1" d="M6.9,71.8c-0.8,0-1.5-0.2-1.9-0.7c-0.5-0.5-0.7-1.1-0.7-1.9c0-0.9,0.2-1.5,0.6-2s1-0.7,1.8-0.7
			c0.7,0,1.3,0.2,1.7,0.6c0.4,0.4,0.6,1,0.6,1.7v0.7H5.7c0,0.4,0.1,0.7,0.4,0.9c0.2,0.2,0.5,0.3,0.9,0.3c0.3,0,0.6,0,0.9-0.1
			s0.6-0.2,0.9-0.3v1.1c-0.2,0.1-0.5,0.2-0.8,0.3C7.6,71.7,7.3,71.8,6.9,71.8z M6.7,67.4c-0.3,0-0.5,0.1-0.7,0.3
			c-0.2,0.2-0.3,0.5-0.3,0.8h2c0-0.3-0.1-0.6-0.3-0.8C7.2,67.5,7,67.4,6.7,67.4z"/>
		<path class="st1" d="M10,65.2c0-0.5,0.3-0.7,0.8-0.7s0.8,0.2,0.8,0.7c0,0.2-0.1,0.4-0.2,0.5c-0.1,0.1-0.3,0.2-0.6,0.2
			C10.3,65.9,10,65.7,10,65.2z M11.5,71.7h-1.4v-5.1h1.4V71.7z"/>
		<path class="st1" d="M17.7,71.7h-1.4v-3c0-0.4-0.1-0.6-0.2-0.8c-0.1-0.2-0.3-0.3-0.6-0.3c-0.4,0-0.7,0.1-0.9,0.4s-0.3,0.7-0.3,1.3
			v2.4h-1.4v-5.1H14l0.2,0.7h0.1c0.2-0.2,0.4-0.4,0.6-0.6c0.3-0.1,0.6-0.2,0.9-0.2c0.6,0,1.1,0.2,1.4,0.5c0.3,0.3,0.5,0.8,0.5,1.4
			V71.7z"/>
		<path class="st1" d="M20.4,71.7l-2-5.1h1.5l1,2.9c0.1,0.4,0.2,0.7,0.2,1.1l0,0c0-0.3,0.1-0.6,0.2-1.1l1-2.9h1.5l-2,5.1H20.4z"/>
		<path class="st1" d="M26.9,71.8c-0.8,0-1.5-0.2-1.9-0.7c-0.5-0.5-0.7-1.1-0.7-1.9c0-0.9,0.2-1.5,0.6-2c0.4-0.5,1-0.7,1.8-0.7
			c0.7,0,1.3,0.2,1.7,0.6s0.6,1,0.6,1.7v0.7h-3.3c0,0.4,0.1,0.7,0.4,0.9c0.2,0.2,0.5,0.3,0.9,0.3c0.3,0,0.6,0,0.9-0.1
			c0.3-0.1,0.6-0.2,0.9-0.3v1.1c-0.2,0.1-0.5,0.2-0.8,0.3C27.6,71.7,27.3,71.8,26.9,71.8z M26.7,67.4c-0.3,0-0.5,0.1-0.7,0.3
			c-0.2,0.2-0.3,0.5-0.3,0.8h2c0-0.3-0.1-0.6-0.3-0.8S27,67.4,26.7,67.4z"/>
		<path class="st1" d="M34.8,71.7h-1.4v-3c0-0.4-0.1-0.6-0.2-0.8c-0.1-0.2-0.3-0.3-0.6-0.3c-0.4,0-0.7,0.1-0.9,0.4s-0.3,0.7-0.3,1.3
			v2.4H30v-5.1h1.1l0.2,0.7h0.1c0.2-0.2,0.4-0.4,0.6-0.6c0.3-0.1,0.6-0.2,0.9-0.2c0.6,0,1.1,0.2,1.4,0.5c0.3,0.3,0.5,0.8,0.5,1.4
			C34.8,68.4,34.8,71.7,34.8,71.7z"/>
		<path class="st1" d="M38.5,70.7c0.2,0,0.5-0.1,0.9-0.2v1c-0.3,0.2-0.8,0.2-1.3,0.2c-0.6,0-1-0.1-1.2-0.4c-0.3-0.3-0.4-0.7-0.4-1.3
			v-2.5h-0.7V67l0.8-0.5l0.4-1.1h0.9v1.1h1.4v1.1h-1.4v2.5c0,0.2,0.1,0.3,0.2,0.4C38.1,70.6,38.3,70.7,38.5,70.7z"/>
		<path class="st1" d="M43.6,71.7L43.4,71l0,0c-0.2,0.3-0.5,0.5-0.7,0.6c-0.3,0.1-0.6,0.2-1,0.2c-0.5,0-0.9-0.1-1.2-0.4
			s-0.4-0.7-0.4-1.2s0.2-0.9,0.6-1.2c0.4-0.3,1-0.4,1.7-0.4h0.9v-0.2c0-0.5-0.3-0.8-0.8-0.8c-0.4,0-0.9,0.1-1.4,0.4l-0.5-0.9
			c0.6-0.3,1.2-0.5,2-0.5c0.7,0,1.2,0.2,1.6,0.5s0.6,0.8,0.6,1.4v3.4h-1.2V71.7z M43.2,69.3h-0.5c-0.4,0-0.7,0.1-0.9,0.2
			s-0.3,0.3-0.3,0.6c0,0.4,0.2,0.6,0.7,0.6c0.3,0,0.6-0.1,0.8-0.3c0.2-0.2,0.3-0.4,0.3-0.7v-0.4H43.2z"/>
		<path class="st1" d="M50.8,71.7h-1.4v-3c0-0.4-0.1-0.6-0.2-0.8c-0.1-0.2-0.3-0.3-0.6-0.3c-0.4,0-0.7,0.1-0.9,0.4
			c-0.2,0.3-0.3,0.7-0.3,1.3v2.4H46v-5.1h1.1l0.2,0.7h0.1c0.2-0.2,0.4-0.4,0.6-0.6c0.3-0.1,0.6-0.2,0.9-0.2c0.6,0,1.1,0.2,1.4,0.5
			s0.5,0.8,0.5,1.4C50.8,68.4,50.8,71.7,50.8,71.7z"/>
		<path class="st1" d="M53.9,71.8c-0.6,0-1.1-0.2-1.4-0.7S52,70,52,69.1c0-0.8,0.2-1.5,0.5-2c0.4-0.5,0.8-0.7,1.5-0.7
			c0.6,0,1.1,0.3,1.5,0.8l0,0c-0.1-0.4-0.1-0.7-0.1-1v-1.6h1.4v7.2h-1.1L55.4,71h-0.1C55,71.5,54.5,71.8,53.9,71.8z M54.4,70.7
			c0.4,0,0.6-0.1,0.8-0.3c0.2-0.2,0.3-0.6,0.3-1.1v-0.2c0-0.6-0.1-0.9-0.3-1.2c-0.2-0.2-0.4-0.4-0.8-0.4c-0.3,0-0.6,0.1-0.7,0.4
			c-0.2,0.3-0.3,0.7-0.3,1.2s0.1,0.9,0.3,1.1C53.8,70.5,54.1,70.7,54.4,70.7z"/>
		<path class="st1" d="M62.9,69.1c0,0.8-0.2,1.5-0.7,2c-0.4,0.5-1.1,0.7-1.8,0.7c-0.5,0-0.9-0.1-1.3-0.3c-0.4-0.2-0.7-0.5-0.9-0.9
			c-0.2-0.4-0.3-0.9-0.3-1.4c0-0.8,0.2-1.5,0.7-2c0.4-0.5,1.1-0.7,1.8-0.7c0.5,0,0.9,0.1,1.3,0.3c0.4,0.2,0.7,0.5,0.9,0.9
			S62.9,68.6,62.9,69.1z M59.3,69.1c0,0.5,0.1,0.9,0.3,1.2c0.2,0.3,0.4,0.4,0.8,0.4s0.6-0.1,0.8-0.4c0.2-0.3,0.2-0.6,0.2-1.2
			c0-0.5-0.1-0.9-0.2-1.1c-0.2-0.3-0.4-0.4-0.8-0.4s-0.6,0.1-0.8,0.4C59.4,68.2,59.3,68.6,59.3,69.1z"/>
	</g>
	<path class="st1" d="M32.7,57.7l-3.4-10h-3.1l-5.2,10l-3-4.5l3.3-5.2h-2.4l-2.2,3.8L14.5,48h-2.4l3.2,5.1l-2.9,4.5L9,47.7H5.9
		L0.3,58.5h2.6l1.7-3.7h4.2l1.2,3.7h1.6h0.1l0,0h2.4l2.4-4l2.4,4h2.5l0,0h1.9l1.7-3.7h4.2l1.2,3.7H32h0.9L32.7,57.7z M5.5,53.1
		L7,49.8h0.4l1.1,3.3H5.5z M25.8,53.1l1.5-3.3h0.4l1.1,3.3H25.8z"/>
	<polygon class="st0" points="65.5,71.7 64.4,71.7 69.1,65.9 70.2,65.9 	"/>
	<g>
		<path class="st1" d="M72.3,71.7h-0.8v-7.2h0.8V71.7z"/>
		<path class="st1" d="M78.3,69.2c0,0.8-0.2,1.5-0.6,1.9c-0.4,0.5-1,0.7-1.7,0.7c-0.5,0-0.9-0.1-1.2-0.3c-0.3-0.2-0.6-0.5-0.8-0.9
			c-0.2-0.4-0.3-0.9-0.3-1.4c0-0.8,0.2-1.5,0.6-1.9c0.4-0.4,1-0.7,1.7-0.7s1.3,0.2,1.7,0.7C78.1,67.7,78.3,68.4,78.3,69.2z
			 M74.5,69.2c0,0.6,0.1,1.1,0.4,1.5c0.3,0.3,0.6,0.5,1.1,0.5s0.9-0.2,1.1-0.5c0.3-0.3,0.4-0.8,0.4-1.5c0-0.6-0.1-1.1-0.4-1.5
			c-0.3-0.3-0.6-0.5-1.1-0.5s-0.9,0.2-1.1,0.5C74.6,68,74.5,68.5,74.5,69.2z"/>
		<path class="st1" d="M82.9,70.3c0,0.5-0.2,0.8-0.5,1.1c-0.3,0.3-0.8,0.4-1.5,0.4s-1.2-0.1-1.6-0.3v-0.7c0.2,0.1,0.5,0.2,0.8,0.3
			c0.3,0.1,0.5,0.1,0.8,0.1c0.4,0,0.7-0.1,0.9-0.2s0.3-0.3,0.3-0.6c0-0.2-0.1-0.4-0.3-0.5c-0.2-0.1-0.5-0.3-1-0.5s-0.8-0.3-1-0.5
			c-0.2-0.1-0.3-0.3-0.4-0.4c-0.1-0.2-0.1-0.4-0.1-0.6c0-0.4,0.2-0.7,0.5-1c0.3-0.2,0.8-0.4,1.4-0.4c0.5,0,1.1,0.1,1.6,0.3l-0.3,0.6
			c-0.5-0.2-1-0.3-1.4-0.3c-0.4,0-0.6,0.1-0.8,0.2S80,67.6,80,67.8c0,0.1,0,0.3,0.1,0.3c0.1,0.1,0.2,0.2,0.3,0.3
			c0.2,0.1,0.4,0.2,0.9,0.4c0.6,0.2,1,0.4,1.2,0.7C82.8,69.7,82.9,70,82.9,70.3z"/>
		<path class="st1" d="M89.8,70.3c0,0.5-0.2,0.8-0.5,1.1c-0.3,0.3-0.8,0.4-1.5,0.4s-1.2-0.1-1.6-0.3v-0.7c0.2,0.1,0.5,0.2,0.8,0.3
			c0.3,0.1,0.5,0.1,0.8,0.1c0.4,0,0.7-0.1,0.9-0.2c0.2-0.1,0.3-0.3,0.3-0.6c0-0.2-0.1-0.4-0.3-0.5s-0.5-0.3-1-0.5s-0.8-0.3-1-0.5
			c-0.2-0.1-0.3-0.3-0.4-0.4c-0.1-0.2-0.1-0.4-0.1-0.6c0-0.4,0.2-0.7,0.5-1c0.3-0.2,0.8-0.4,1.4-0.4c0.5,0,1.1,0.1,1.6,0.3l-0.3,0.6
			c-0.5-0.2-1-0.3-1.4-0.3c-0.4,0-0.6,0.1-0.8,0.2c-0.2,0.1-0.3,0.3-0.3,0.5c0,0.1,0,0.3,0.1,0.3c0.1,0.1,0.2,0.2,0.3,0.3
			c0.2,0.1,0.4,0.2,0.9,0.4c0.6,0.2,1,0.4,1.2,0.7C89.7,69.7,89.8,70,89.8,70.3z"/>
		<path class="st1" d="M93.2,71.8c-0.7,0-1.3-0.2-1.8-0.7c-0.4-0.5-0.6-1.1-0.6-1.9s0.2-1.5,0.6-1.9c0.4-0.5,0.9-0.7,1.6-0.7
			c0.6,0,1.1,0.2,1.5,0.6c0.4,0.4,0.6,1,0.6,1.6v0.5h-3.5c0,0.6,0.2,1,0.4,1.3c0.3,0.3,0.7,0.5,1.2,0.5s1.1-0.1,1.6-0.3v0.7
			c-0.3,0.1-0.5,0.2-0.8,0.3C93.8,71.8,93.6,71.8,93.2,71.8z M93,67.2c-0.4,0-0.7,0.1-1,0.4c-0.2,0.3-0.4,0.6-0.4,1.1h2.6
			c0-0.5-0.1-0.9-0.3-1.1C93.7,67.3,93.4,67.2,93,67.2z"/>
		<path class="st1" d="M100.5,66.6v0.5l-0.9,0.1c0.1,0.1,0.2,0.2,0.2,0.4c0.1,0.2,0.1,0.4,0.1,0.6c0,0.5-0.2,0.9-0.5,1.2
			c-0.3,0.3-0.8,0.4-1.4,0.4c-0.2,0-0.3,0-0.4,0c-0.3,0.2-0.5,0.4-0.5,0.6c0,0.1,0.1,0.2,0.2,0.3c0.1,0.1,0.3,0.1,0.6,0.1h0.9
			c0.5,0,1,0.1,1.3,0.3c0.3,0.2,0.4,0.6,0.4,1c0,0.6-0.2,1-0.7,1.3c-0.4,0.3-1.1,0.4-2,0.4c-0.7,0-1.2-0.1-1.5-0.4
			c-0.4-0.2-0.5-0.6-0.5-1c0-0.3,0.1-0.6,0.3-0.8c0.2-0.2,0.5-0.4,0.8-0.5c-0.1-0.1-0.2-0.1-0.3-0.3c-0.1-0.1-0.1-0.3-0.1-0.4
			c0-0.2,0-0.3,0.1-0.5c0.1-0.1,0.3-0.3,0.5-0.4c-0.3-0.1-0.5-0.3-0.6-0.5c-0.2-0.3-0.2-0.6-0.2-0.9c0-0.6,0.2-1,0.5-1.3
			s0.8-0.4,1.4-0.4c0.3,0,0.5,0,0.7,0.1h1.6V66.6z M96.5,72.5c0,0.3,0.1,0.5,0.3,0.6c0.2,0.1,0.6,0.2,1,0.2c0.6,0,1.1-0.1,1.4-0.3
			c0.3-0.2,0.5-0.5,0.5-0.8s-0.1-0.5-0.3-0.6c-0.2-0.1-0.5-0.2-1-0.2h-0.9c-0.3,0-0.6,0.1-0.8,0.2C96.6,72,96.5,72.2,96.5,72.5z
			 M96.9,68.3c0,0.4,0.1,0.6,0.3,0.8c0.2,0.2,0.5,0.3,0.8,0.3c0.7,0,1.1-0.4,1.1-1.1c0-0.8-0.4-1.1-1.1-1.1c-0.4,0-0.6,0.1-0.8,0.3
			C97,67.6,96.9,67.9,96.9,68.3z"/>
		<path class="st1" d="M102.3,66.6v3.3c0,0.4,0.1,0.7,0.3,0.9c0.2,0.2,0.5,0.3,0.9,0.3c0.5,0,0.9-0.1,1.2-0.4
			c0.2-0.3,0.4-0.8,0.4-1.4v-2.7h0.8v5h-0.6l-0.1-0.7l0,0c-0.2,0.2-0.4,0.4-0.7,0.6c-0.3,0.1-0.6,0.2-0.9,0.2
			c-0.6,0-1.1-0.1-1.4-0.4s-0.5-0.8-0.5-1.4v-3.3H102.3z"/>
		<path class="st1" d="M109.6,66.6c0.2,0,0.4,0,0.6,0.1l-0.1,0.7c-0.2,0-0.4-0.1-0.6-0.1c-0.4,0-0.8,0.2-1,0.5
			c-0.3,0.3-0.4,0.7-0.4,1.2v2.7h-0.8v-5h0.6l0.1,0.9l0,0c0.2-0.3,0.4-0.6,0.7-0.8C109,66.6,109.3,66.6,109.6,66.6z"/>
		<path class="st1" d="M115.3,69.2c0,0.8-0.2,1.5-0.6,1.9c-0.4,0.5-1,0.7-1.7,0.7c-0.5,0-0.9-0.1-1.2-0.3c-0.3-0.2-0.6-0.5-0.8-0.9
			s-0.3-0.9-0.3-1.4c0-0.8,0.2-1.5,0.6-1.9c0.4-0.5,1-0.7,1.7-0.7s1.3,0.2,1.7,0.7C115.1,67.7,115.3,68.4,115.3,69.2z M111.5,69.2
			c0,0.6,0.1,1.1,0.4,1.5c0.3,0.3,0.6,0.5,1.1,0.5s0.9-0.2,1.1-0.5c0.3-0.3,0.4-0.8,0.4-1.5c0-0.6-0.1-1.1-0.4-1.5
			c-0.3-0.3-0.6-0.5-1.1-0.5s-0.9,0.2-1.1,0.5C111.6,68,111.5,68.5,111.5,69.2z"/>
		<path class="st1" d="M119.9,70.3c0,0.5-0.2,0.8-0.5,1.1c-0.3,0.3-0.8,0.4-1.5,0.4s-1.2-0.1-1.6-0.3v-0.7c0.2,0.1,0.5,0.2,0.8,0.3
			c0.3,0.1,0.5,0.1,0.8,0.1c0.4,0,0.7-0.1,0.9-0.2s0.3-0.3,0.3-0.6c0-0.2-0.1-0.4-0.3-0.5s-0.5-0.3-1-0.5s-0.8-0.3-1-0.5
			c-0.2-0.1-0.3-0.3-0.4-0.4c-0.1-0.2-0.1-0.4-0.1-0.6c0-0.4,0.2-0.7,0.5-1c0.3-0.2,0.8-0.4,1.4-0.4c0.5,0,1.1,0.1,1.6,0.3l-0.3,0.6
			c-0.5-0.2-1-0.3-1.4-0.3s-0.6,0.1-0.8,0.2s-0.3,0.3-0.3,0.5c0,0.1,0,0.3,0.1,0.3c0.1,0.1,0.2,0.2,0.3,0.3c0.2,0.1,0.4,0.2,0.9,0.4
			c0.6,0.2,1,0.4,1.2,0.7C119.8,69.7,119.9,70,119.9,70.3z"/>
	</g>
	<rect x="0.2" y="62.4" class="st0" width="119.7" height="1"/>
	<g>
		<path class="st1" d="M55.6,48.3c-3.2,0-5.7,2.3-5.7,5.2s2.6,5.2,5.7,5.2s5.7-2.3,5.7-5.2C61.4,50.6,58.8,48.3,55.6,48.3z
			 M55.6,56.8c-1.9,0-3.4-1.5-3.4-3.3s1.5-3.3,3.4-3.3s3.4,1.5,3.4,3.3C59,55.3,57.5,56.8,55.6,56.8z"/>
		<path class="st1" d="M70.8,48.3v10h1.8v-8.1h1.7c0,0,1.6-0.1,1.6,1.1c0,1.2-0.9,1.5-2.6,1.4l0.4,1.6c0,0,4.2,0.5,4.2-3.2
			c0,0,0.1-2.7-2.7-2.7C72.4,48.4,70.8,48.3,70.8,48.3z"/>
		<polygon class="st1" points="63,48.3 63,58.3 69.6,58.3 69.6,56.8 65,56.8 65,48.3 		"/>
		<path class="st1" d="M102.1,54.1c1-0.3,2.1-1.1,2.1-3c0,0,0.1-2.7-2.7-2.7c-2.7,0-4.6,0-4.6,0v10h1.8v-8.1h1.7
			c0,0,1.6-0.1,1.6,1.1c0,1.2-0.9,1.5-2.6,1.4l2.2,5.7h2.5L102.1,54.1z"/>
		<polygon class="st1" points="96,48.3 92.6,48.3 90.6,48.3 87.5,48.3 87.5,50.2 90.6,50.2 90.6,58.3 92.6,58.3 92.6,50.2 96,50.2 
					"/>
		<rect x="106" y="48.3" class="st1" width="2" height="10"/>
		<path class="st1" d="M48.9,48.3v1.9c0,0-1.7-0.4-2.5-0.3c-0.7,0.1-3.8-0.1-3.9,3.9s5.3,3.4,6.1,2.8l-0.1,1.7c0,0-8.2,2.3-7.9-5.2
			C40.8,46.4,48.9,48.3,48.9,48.3z"/>
		<path class="st1" d="M84.5,48.3H82l-5.2,10h2.5l1.4-3.3h4l1,3.3h2.6L84.5,48.3z M81.5,53.3l1.6-3.1l1.2,3.1H81.5z"/>
		<path class="st1" d="M116.4,48.3h-2.5l-5.2,10h2.5l1.4-3.3h4l1,3.3h2.6L116.4,48.3z M113.4,53.3l1.6-3.1l1.2,3.1H113.4z"/>
	</g>
</g>
</svg>
